<?xml version="1.0" encoding="UTF-8"?>
<svg id="Capa_1" xmlns="http://www.w3.org/2000/svg" version="1.1" viewBox="0 0 1921.6 572.4">
  <!-- Generator: Adobe Illustrator 29.8.6, SVG Export Plug-In . SVG Version: 2.1.1 Build 1)  -->
  <path fill="#891a24" d="M1921.6,80.4v-1434.4H0V166.7s0,0,0,0v41h0v42.7c28.3-8.4,51.8,7.7,77.9,11.8,21.1,3.2,42.7-.1,63,1.9,25.8,2.6,33,29.3,48.7,47,14.1,15.9,31,29.6,52.6,32.8,17.8,2.6,30.3,1,48.2,8.2,87.3,35.2,105.1,198.5,183.7,217.7,102,24.8,148.2-133.2,194.1-196.9,17.8-24.7,32.3-34.6,62.8-22.5,9,3.6,16.7,10.8,25,14.3,7.5,3.2,15.6,3.7,23.3,7.5,17.2,8.3,19.3,13.2,41.5,14.9,124,9.4,184-170.1,315-81,78.4,53.3,123.9,133.3,236.2,111.3,106.4-20.8,135-132.1,198.6-202.8,66-73.5,119-44.9,184.4,8.6,22.2,18.1,59.9,60.1,87.3,64.8,26.3,4.5,54.5-30.6,79.3-35.8v-46.1h0v-88.4s0,0,0,0v-37.2h0Z"/>
</svg>