<?xml version="1.0" encoding="UTF-8"?>
<svg id="Capa_2" data-name="Capa 2" xmlns="http://www.w3.org/2000/svg" viewBox="0 0 266.86 74.76">
  <defs>
    <style>
      .cls-1 {
        fill: #fff;
      }
    </style>
  </defs>
  <g id="Capa_1-2" data-name="Capa 1">
    <g>
      <path class="cls-1" d="M83.45,74.67h-2.23l-.65-1.94h-3.89l-.66,1.94h-2.23l3.98-10.94h1.67l3.99,10.94ZM80,70.94l-1.34-3.98-1.38,3.98h2.72Z"/>
      <polygon class="cls-1" points="93.43 74.67 86.33 74.67 86.33 63.73 88.47 63.73 88.47 72.77 93.43 72.77 93.43 74.67"/>
      <polygon class="cls-1" points="103.91 65.64 98.84 65.64 98.84 68.33 103.15 68.33 103.15 70.23 98.84 70.23 98.84 74.67 96.7 74.67 96.7 63.73 103.91 63.73 103.91 65.64"/>
      <path class="cls-1" d="M115.75,74.67h-2.23l-.65-1.94h-3.89l-.66,1.94h-2.23l3.98-10.94h1.67l3.99,10.94ZM112.31,70.94l-1.34-3.98-1.38,3.98h2.72Z"/>
      <path class="cls-1" d="M124.09,71.08c0,1.16-.39,2.07-1.17,2.75-.72.62-1.61.94-2.69.94s-2.06-.37-2.81-1.12l1.41-1.4c.41.41.88.61,1.4.61,1.15,0,1.72-.62,1.72-1.87v-7.25h2.14v7.34Z"/>
      <path class="cls-1" d="M135.73,69.2c0,1.19-.05,2.01-.14,2.47-.13.76-.45,1.39-.95,1.89-.8.8-1.78,1.2-2.95,1.2s-2.17-.4-2.96-1.2c-.49-.49-.81-1.12-.95-1.89-.08-.45-.12-1.27-.12-2.47s.04-2.02.12-2.47c.14-.77.46-1.4.95-1.89.8-.8,1.79-1.2,2.96-1.2s2.15.4,2.95,1.2c.5.5.82,1.13.95,1.89.09.46.14,1.28.14,2.47M133.6,69.2c0-.84-.01-1.37-.03-1.6-.06-.68-.23-1.17-.51-1.47-.35-.39-.8-.58-1.37-.58s-1.03.19-1.38.58c-.27.31-.43.8-.49,1.47-.02.18-.03.72-.03,1.6s.01,1.41.03,1.6c.06.68.23,1.17.49,1.47.35.39.81.58,1.38.58.63,0,1.13-.25,1.49-.74.28-.38.41-1.35.41-2.92"/>
      <path class="cls-1" d="M147.73,74.67h-2.47l-2.14-4.36h-1.54v4.36h-2.14v-10.94h4.29c1.08,0,1.95.33,2.61.98.62.62.94,1.41.94,2.37,0,.73-.2,1.35-.6,1.87-.36.46-.82.79-1.4,1l2.44,4.72ZM145.15,67.08c0-.43-.14-.77-.43-1.04-.29-.26-.66-.4-1.12-.4h-2.01v2.87h2.01c.46,0,.83-.13,1.12-.4.29-.27.43-.61.43-1.04"/>
      <polygon class="cls-1" points="158.23 74.67 151.03 74.67 151.03 63.73 158.23 63.73 158.23 65.64 153.16 65.64 153.16 68.2 157.48 68.2 157.48 70.11 153.16 70.11 153.16 72.77 158.23 72.77 158.23 74.67"/>
      <path class="cls-1" d="M170.14,74.67h-2.47l-2.14-4.36h-1.54v4.36h-2.14v-10.94h4.29c1.08,0,1.95.33,2.61.98.62.62.94,1.41.94,2.37,0,.73-.2,1.35-.6,1.87-.36.46-.82.79-1.4,1l2.44,4.72ZM167.56,67.08c0-.43-.14-.77-.43-1.04-.29-.26-.66-.4-1.12-.4h-2.01v2.87h2.01c.46,0,.83-.13,1.12-.4.29-.27.43-.61.43-1.04"/>
      <rect class="cls-1" x="173.44" y="63.73" width="2.14" height="10.94"/>
      <path class="cls-1" d="M188.11,74.67h-2.23l-.65-1.94h-3.89l-.66,1.94h-2.23l3.98-10.94h1.67l3.99,10.94ZM184.67,70.94l-1.34-3.98-1.38,3.98h2.72Z"/>
      <path class="cls-1" d="M127.87,12.27h-10.58c3.62,21.91-1.93,33.79-4.44,34.47-1.57.43-3.01-1.32-3.31-3.52-1.07-6.78,3.64-23.72,1.44-30.96h-10.98c7.19,13.45-1.22,25.51,1.48,33,.97,2.7,3.62,4.33,6.47,4.33,4.54,0,8.88-1.27,11.12-9.89-.41,2.7-.97,6.33-1.78,9.59h12.69c-3.73-10.73-5.61-21.57-2.11-37.03"/>
      <path class="cls-1" d="M91.49,12.35c-.74.04-3.84.28-7.18,3.78-7.15,7.48-5.71,19.7-6.27,19.68-.33-.02-.73-4.36-.17-10.11.55-5.69,1.8-10.29,2.84-13.43h-8.97c-1.79,7.57-2.43,13.13-2.29,19.2.22,9.37.9,12.77,2.29,17.97h8.97c-.15-.61-.31-1.57-.46-2.18-1.78-9.99,1.91-26.45,5.23-29.61.31-.25.51-.36.71-.36.51,0,.61.82.26,1.89-.66,2.29,1.48,4.28,5.04,3.87,5.55-.66,7.9-4.54,6.98-7.44-.75-2.39-4.43-3.38-6.98-3.26"/>
      <path class="cls-1" d="M149.39,1.13c.36-.45.04-1.12-.54-1.12h-8.86c-.26,0-.5.15-.62.39-2.13,4.42-4.48,10.6-5.57,18.23-1.98,13.78,1.18,24.96,3.33,30.82,4.37.02,8.73.03,13.1.05-2.02-2.5-9.76-11.44-9.78-24.7-.01-11.78,6.13-20.17,8.93-23.67"/>
      <path class="cls-1" d="M262.3,37.26c-1.73,0-3.87.79-6.3,2.71,2.61,1.91,4.48,7.89,1.12,8.07-4.67.28-7.02-11.2-7.3-16.33,5.83,0,17.41-4.2,17.03-11.9-.23-5.32-5.83-7.23-10.36-7.23-9.01,0-15.45,7.19-15.45,16.38,0,7.65,2.3,19.14,14.2,20.63,4.03.5,7.98-2.1,10.08-5.65,2.01-3.5.42-6.67-3.03-6.67M250.61,22.61c1.45-5.41,4.48-8.68,6.53-8.68,1.63,0,2.61,2.1,1.59,6.91-.93,4.39-4.43,9.29-8.96,9.52,0-3.03.37-5.97.84-7.75"/>
      <path class="cls-1" d="M198.34,23.99c1.35-.19,3.13-.65,4.3-1.78,1.26-1.22,1.68-2.76,1.26-4.21-.98-3.41-5.51-5.61-10.51-5.61-7.01,0-15.01,6.55-15.4,17.86,0,0-.01-.02-.02-.03,0,2.49-4.16,14.29-8.05,15.35-4.39,1.2-8.75-.7-11.26-3.8-3.46-4.28-2.17-9.58-2-10.2,5.83,0,17.41-4.2,17.03-11.9-.23-5.32-5.83-7.23-10.36-7.23-2.86,0-5.46.73-7.68,2.01-6.84,3.96-7.63,12.56-7.77,14.37-.12,1.53-.64,10.51,6.16,16.35,4.35,3.74,9.33,4.14,11.46,4.28,8.59.57,13.41-6.29,15.22-8.09,2.46,4.51,6.48,8.09,11.72,8.09,4.06,0,7.99-2.1,10.09-5.65,2.01-3.5.42-6.68-3.04-6.68-1.73,0-3.88.79-6.31,2.71,2.62,1.91,4.48,7.71,1.12,8.08-1.5.19-3.22-.56-4.63-2.1-4.06-4.58-3.18-19.44-2.15-23.37,1.35-4.95,4.67-9.25,7.52-8.55,2.15.61.79,3.88-.09,4.67-2.99,2.66-.89,5.89,3.36,5.42M157.46,22.49c1.45-5.41,4.48-8.68,6.53-8.68,1.63,0,2.61,2.1,1.59,6.91-.93,4.39-4.43,9.29-8.96,9.52,0-3.03.37-5.97.84-7.75"/>
      <path class="cls-1" d="M239.51,13.32c-1.25-2.72-9.56-3.4-14.64-.21-7.9,4.97-8.01,18.09-8.81,17.95-.76-.13.43-13.47-4.59-21.83C206.26.57,196.61.09,195.64.04c-2.08-.1-8.46-.38-13.4,3.78-3.25,2.74-5.12,8.92-4.46,9.52.65.59,3.2-2.59,7.59-4.51,4.97-2.17,13.62-3.59,19.34.64,5.8,4.29,6.25,12.21,6.3,19.93.06,8.98-2.32,16.08-4.08,20.24h12.26c-2.77-17.93,3.93-31.7,7.36-31.7,1.05,0,1.86.81,2.1,2.48.95,6.34-3.64,22.44-1.59,29.22h11.51c-7.13-13.98-6.43-22.26-3.79-27.39,2.12-4.13,5.74-6.72,4.72-8.93"/>
      <path class="cls-1" d="M65.15,12.31h-10.58c3.62,21.91-1.93,33.79-4.44,34.47-1.57.43-3.01-1.32-3.31-3.52-1.31-9.36,3.89-14.5,2.23-27-.25-1.92-1.92-7.33-7.03-11.1-2.91-2.15-6.62-3.13-9.75-3.8,0,0-3.76-.83-9.22-.83-.79,0-1.19.05-1.27.05-7.64.45-13.44,2.81-16.54,5.77-.01.01-.03.03-.06.05-.53.51-3.36,3.36-3.77,7.2-.94,8.82,10.46,13.39,13.13,14.88,3.15,1.75,4.51,2.58,6.68,4.38,7.07,5.88,3.05,15.12-3.27,15.12-3.86,0-11.65-3.35-15.31-12.73-.23-.6-1.12-.46-1.17.18-.37,5.07-.91,8.96-1.45,12.02-.08.46.36.82.8.68.95-.32,1.89-.39,2.8-.31,3.05.27,10.26,1.82,14.42,1.82,3.71,0,7.38-.91,10.26-2.67,4.07-2.46,7.12-7,7.12-12.66-.04-9.29-7.1-11.77-14.3-15.62-6.83-3.65-7.34-5.12-7.72-6.51-.66-2.43-.19-4.17,1.48-6.27,3.29-4.14,10.42-3.83,13.14-3.47,2.15.28,6.35.74,9.36,3.16,5.37,4.31,5.51,10.13,5.52,13.27.02,13.97-8.03,20.32-4.12,26.44,1.03,1.61,3.3,4.33,6.47,4.33,2.85,0,5.06-.89,5.89-1.36,4.45-2.54,5.58-7.44,5.8-8.47-.06,1.59-.19,3.28-.56,4.97-.42,1.97-.79,3.13-1.76,4.67l12.65-.09c-3.73-10.73-5.61-21.57-2.11-37.03"/>
    </g>
  </g>
</svg>